<svg width="13" height="14" viewBox="0 0 13 14" fill="none" xmlns="http://www.w3.org/2000/svg">
<path d="M5.77768 10.8398H1.39062" stroke="#130F26" stroke-width="0.95689" stroke-linecap="round" stroke-linejoin="round"/>
<path fill-rule="evenodd" clip-rule="evenodd" d="M8.52991 10.8405C8.52991 12.3873 8.99142 12.9024 10.3747 12.9024C11.758 12.9024 12.2195 12.3873 12.2195 10.8405C12.2195 9.29381 11.758 8.77869 10.3747 8.77869C8.99142 8.77869 8.52991 9.29381 8.52991 10.8405Z" stroke="#130F26" stroke-width="0.95689" stroke-linecap="round" stroke-linejoin="round"/>
<path d="M7.83469 2.89407H12.2211" stroke="#130F26" stroke-width="0.95689" stroke-linecap="round" stroke-linejoin="round"/>
<path fill-rule="evenodd" clip-rule="evenodd" d="M5.08087 2.89291C5.08087 1.34686 4.61936 0.831055 3.23605 0.831055C1.85213 0.831055 1.39062 1.34686 1.39062 2.89291C1.39062 4.43965 1.85213 4.95477 3.23605 4.95477C4.61936 4.95477 5.08087 4.43965 5.08087 2.89291Z" stroke="#130F26" stroke-width="0.95689" stroke-linecap="round" stroke-linejoin="round"/>
</svg>
