<svg width="18" height="18" viewBox="0 0 18 18" fill="none" xmlns="http://www.w3.org/2000/svg">
<path d="M5.29388 7.54045H1.8325C0.814444 7.54045 0 6.72601 0 5.70795V2.24656C0 1.22851 0.814444 0.414062 1.8325 0.414062H5.29388C6.31194 0.414062 7.12638 1.22851 7.12638 2.24656V5.70795C7.22819 6.72601 6.31194 7.54045 5.29388 7.54045Z" fill="#1787E0"/>
<path d="M5.29388 17.2123H1.8325C0.814444 17.2123 0 16.3979 0 15.3798V11.9184C0 10.9004 0.814444 10.0859 1.8325 10.0859H5.29388C6.31194 10.0859 7.12638 10.9004 7.12638 11.9184V15.3798C7.22819 16.2961 6.31194 17.2123 5.29388 17.2123Z" fill="#1787E0"/>
<path d="M15.4742 7.54045H12.0128C10.9948 7.54045 10.1803 6.72601 10.1803 5.70795V2.24656C10.1803 1.22851 10.9948 0.414062 12.0128 0.414062H15.4742C16.4923 0.414062 17.3067 1.22851 17.3067 2.24656V5.70795C17.3067 6.72601 16.4923 7.54045 15.4742 7.54045Z" fill="#C5E4FC"/>
<path d="M15.4741 17.2123H12.0127C10.9946 17.2123 10.1802 16.3979 10.1802 15.3798V11.9184C10.1802 10.9004 10.9946 10.0859 12.0127 10.0859H15.4741C16.4921 10.0859 17.3066 10.9004 17.3066 11.9184V15.3798C17.3066 16.2961 16.4921 17.2123 15.4741 17.2123Z" fill="#1787E0"/>
</svg>
