<svg width="19" height="20" viewBox="0 0 19 20" fill="none" xmlns="http://www.w3.org/2000/svg">
<path d="M9.84536 1.49414C5.26411 1.49414 1.59911 5.15911 1.59911 9.74036C1.59911 11.1656 1.90453 12.3874 2.51536 13.609L0.988281 18.6993C2.61717 18.1903 4.34786 17.6812 5.97675 17.0704C7.19842 17.6812 8.52189 18.0884 9.94716 18.0884C14.5284 18.0884 18.1934 14.4234 18.1934 9.8422C18.0916 5.26096 14.4266 1.49414 9.84536 1.49414Z" stroke="#ADC9CD" stroke-miterlimit="10"/>
<path d="M6.4868 11.4717C7.04906 11.4717 7.50486 11.0159 7.50486 10.4536C7.50486 9.89135 7.04906 9.43555 6.4868 9.43555C5.92455 9.43555 5.46875 9.89135 5.46875 10.4536C5.46875 11.0159 5.92455 11.4717 6.4868 11.4717Z" stroke="#ADC9CD" stroke-miterlimit="10"/>
<path d="M10.1499 11.4717C10.7121 11.4717 11.1679 11.0159 11.1679 10.4536C11.1679 9.89135 10.7121 9.43555 10.1499 9.43555C9.58763 9.43555 9.13184 9.89135 9.13184 10.4536C9.13184 11.0159 9.58763 11.4717 10.1499 11.4717Z" stroke="#ADC9CD" stroke-miterlimit="10"/>
<path d="M13.3071 11.4717C13.8694 11.4717 14.3252 11.0159 14.3252 10.4536C14.3252 9.89135 13.8694 9.43555 13.3071 9.43555C12.7449 9.43555 12.2891 9.89135 12.2891 10.4536C12.2891 11.0159 12.7449 11.4717 13.3071 11.4717Z" stroke="#ADC9CD" stroke-miterlimit="10"/>
</svg>
