<svg width="122" height="122" viewBox="0 0 122 122" fill="none" xmlns="http://www.w3.org/2000/svg">
<circle cx="60.8224" cy="60.8224" r="60.8224" fill="#F3F5FC"/>
<g filter="url(#filter0_d_1_120)">
<rect x="44.3269" y="31.9595" width="39.1738" height="57.7298" rx="4.05483" fill="#585CFF"/>
<rect x="45.0027" y="32.6353" width="37.8222" height="56.3782" rx="3.37903" stroke="white" stroke-width="1.35161"/>
</g>
<path d="M46.3894 44.3291H69.1377C71.3771 44.3291 73.1925 46.1445 73.1925 48.3839V74.2936C73.1925 76.533 71.3771 78.3484 69.1377 78.3484H46.3894V44.3291Z" fill="#45389B"/>
<rect x="23.709" y="40.2075" width="46.39" height="31.9576" rx="4.05483" fill="#16E0B3"/>
<line x1="29.543" y1="48.8115" x2="57.0563" y2="48.8115" stroke="white" stroke-width="1.35161" stroke-linecap="round"/>
<rect x="28.8645" y="58.7603" width="6.18533" height="6.18533" rx="1.35161" fill="white"/>
<rect x="37.1143" y="58.7603" width="6.18533" height="6.18533" rx="1.35161" fill="white"/>
<rect x="45.3577" y="58.7603" width="6.18533" height="6.18533" rx="1.35161" fill="white"/>
<rect x="53.6042" y="58.7603" width="6.18533" height="6.18533" rx="1.35161" fill="white"/>
<defs>
<filter id="filter0_d_1_120" x="36.893" y="27.2288" width="54.0415" height="72.5977" filterUnits="userSpaceOnUse" color-interpolation-filters="sRGB">
<feFlood flood-opacity="0" result="BackgroundImageFix"/>
<feColorMatrix in="SourceAlpha" type="matrix" values="0 0 0 0 0 0 0 0 0 0 0 0 0 0 0 0 0 0 127 0" result="hardAlpha"/>
<feOffset dy="2.70322"/>
<feGaussianBlur stdDeviation="3.71693"/>
<feComposite in2="hardAlpha" operator="out"/>
<feColorMatrix type="matrix" values="0 0 0 0 0.084375 0 0 0 0 0.11325 0 0 0 0 0.1875 0 0 0 0.25 0"/>
<feBlend mode="normal" in2="BackgroundImageFix" result="effect1_dropShadow_1_120"/>
<feBlend mode="normal" in="SourceGraphic" in2="effect1_dropShadow_1_120" result="shape"/>
</filter>
</defs>
</svg>
