<svg width="433" height="264" viewBox="0 0 433 264" fill="none" xmlns="http://www.w3.org/2000/svg">
<path d="M2.12598 136.496V129.82H26.1393V136.496H17.9554V161.371H10.3099V136.496H2.12598Z" fill="#2CD8FE"/>
<path d="M30.8667 161.371V129.82H38.5122V142.311H48.096V129.82H55.8492V161.371H48.096V148.987H38.5122V161.371H30.8667Z" fill="#2CD8FE"/>
<path d="M62.9751 161.371V129.82H83.4349V136.496H70.7283V142.526H82.035V149.095H70.7283V154.695H83.9733V161.371H62.9751Z" fill="#2CD8FE"/>
<path d="M9.03369 237.726H11.5104L18.2944 247.202L25.1862 237.726H27.7705L19.3713 249.464V259.693H17.2176V249.464L9.03369 237.726Z" fill="#2CD8FE"/>
<path d="M29.9258 248.82C29.9258 247.312 30.2488 245.805 30.7872 244.405C31.3257 243.005 32.1871 241.82 33.1563 240.851C34.1254 239.882 35.3099 239.02 36.7098 238.482C38.1097 237.836 39.5096 237.621 41.0171 237.621C43.0631 237.621 44.8937 238.159 46.6167 239.128C48.3396 240.097 49.6318 241.497 50.6009 243.22C51.5701 244.943 52.1085 246.881 52.1085 248.927C52.1085 250.435 51.7854 251.942 51.247 253.342C50.7086 254.742 49.8472 255.927 48.878 256.896C47.9089 257.865 46.7243 258.726 45.3245 259.265C43.9246 259.911 42.5247 260.126 40.9095 260.126C39.4019 260.126 37.8943 259.803 36.6021 259.265C35.2023 258.619 34.0177 257.865 33.0486 256.896C32.0794 255.927 31.3257 254.742 30.6796 253.342C30.2488 251.835 29.9258 250.327 29.9258 248.82ZM33.1563 244.189C32.4025 245.589 31.9718 247.097 31.9718 248.82C31.9718 250.543 32.4025 252.05 33.1563 253.45C33.9101 254.85 34.9869 255.927 36.3868 256.788C37.7866 257.65 39.2942 257.973 40.9095 257.973C42.5247 257.973 44.1399 257.542 45.4321 256.788C46.7243 256.034 47.9089 254.85 48.6626 253.45C49.4164 252.05 49.8472 250.543 49.8472 248.82C49.8472 247.097 49.4164 245.589 48.6626 244.189C47.9089 242.789 46.832 241.713 45.4321 240.851C44.0323 239.99 42.5247 239.667 40.9095 239.667C39.2942 239.667 37.679 240.097 36.3868 240.851C34.9869 241.713 33.9101 242.789 33.1563 244.189Z" fill="#2CD8FE"/>
<path d="M56.7256 252.374V237.836H58.8792V252.374C58.8792 254.097 59.4177 255.389 60.4945 256.466C61.5713 257.542 62.9712 257.973 64.4788 257.973C66.094 257.973 67.3862 257.435 68.5707 256.466C69.6476 255.389 70.186 254.097 70.186 252.374V237.836H72.3396V252.374C72.3396 253.881 72.0166 255.281 71.2628 256.466C70.509 257.65 69.6476 258.619 68.463 259.158C67.2785 259.804 65.9863 260.127 64.5864 260.127C63.1866 260.127 61.8944 259.804 60.7099 259.158C59.5253 258.512 58.5562 257.65 57.9101 256.466C57.0486 255.173 56.7256 253.881 56.7256 252.374Z" fill="#2CD8FE"/>
<path d="M78.4736 259.804V237.836H86.6575C87.7344 237.836 88.7035 238.052 89.4573 238.375C90.3188 238.806 90.8572 239.236 91.3956 239.882C91.8263 240.529 92.1494 241.282 92.4724 242.036C92.6878 242.79 92.7955 243.651 92.7955 244.513C92.7955 245.159 92.6878 245.805 92.5801 246.451C92.4724 247.097 92.2571 247.636 91.934 248.282C91.611 248.82 91.2879 249.359 90.8572 249.789C90.4265 250.22 89.888 250.543 89.2419 250.758C88.5958 250.974 87.8421 251.189 86.9806 251.189L93.1185 259.804H90.3188L84.2885 251.189H80.5196V259.804H78.4736ZM80.5196 249.035H86.4422C87.196 249.035 87.8421 248.928 88.3805 248.712C88.9189 248.497 89.3496 248.066 89.6727 247.636C89.9957 247.205 90.2111 246.666 90.3188 246.236C90.4265 245.697 90.5341 245.159 90.5341 244.513C90.5341 243.867 90.4265 243.328 90.3188 242.79C90.2111 242.251 89.9957 241.821 89.6727 241.282C89.3496 240.744 88.9189 240.529 88.3805 240.205C87.8421 239.882 87.196 239.775 86.5499 239.775H80.5196V249.035Z" fill="#2CD8FE"/>
<path d="M106.387 259.804V237.836H108.54V247.959H120.601V237.836H122.755V259.804H120.601V249.897H108.433V259.804H106.387Z" fill="#2CD8FE"/>
<path d="M128.991 259.804V237.836H141.59V239.99H131.145V248.066H140.298V250.22H131.145V257.865H141.913V260.019H128.991V259.804Z" fill="#2CD8FE"/>
<path d="M144.289 259.804L152.796 237.836H155.057L163.564 259.804H161.303L159.042 254.097H148.812L146.55 259.804H144.289ZM149.566 252.051H158.288L153.981 240.744L149.566 252.051Z" fill="#2CD8FE"/>
<path d="M167.236 259.804V237.836H169.39V257.758H178.758V259.911H167.236V259.804Z" fill="#2CD8FE"/>
<path d="M180.593 239.88V237.726H196.853V239.88H189.746V259.801H187.593V239.88H180.593Z" fill="#2CD8FE"/>
<path d="M200.829 259.804V237.836H202.982V247.959H215.043V237.836H217.196V259.804H215.043V249.897H202.982V259.804H200.829Z" fill="#2CD8FE"/>
<path d="M221.064 263.57C222.464 261.631 223.11 259.37 223.11 256.786H225.587C225.479 258.509 225.156 259.908 224.51 261.201C223.971 262.493 223.325 263.354 222.572 264L221.064 263.57Z" fill="#2CD8FE"/>
<path d="M238.274 248.82C238.274 247.312 238.597 245.805 239.136 244.405C239.674 243.005 240.536 241.82 241.505 240.851C242.474 239.882 243.659 239.02 245.058 238.482C246.458 237.836 247.858 237.621 249.366 237.621C251.412 237.621 253.242 238.159 254.965 239.128C256.688 240.097 257.98 241.497 258.95 243.22C259.919 244.943 260.457 246.881 260.457 248.927C260.457 250.435 260.134 251.942 259.596 253.342C259.057 254.742 258.196 255.927 257.227 256.896C256.257 257.865 255.073 258.726 253.673 259.265C252.273 259.911 250.873 260.126 249.258 260.126C247.751 260.126 246.243 259.803 244.951 259.265C243.551 258.619 242.366 257.865 241.397 256.896C240.428 255.927 239.674 254.742 239.028 253.342C238.597 251.835 238.274 250.327 238.274 248.82ZM241.613 244.189C240.859 245.589 240.428 247.097 240.428 248.82C240.428 250.543 240.859 252.05 241.613 253.45C242.366 254.85 243.443 255.927 244.843 256.788C246.243 257.65 247.751 257.973 249.366 257.973C250.981 257.973 252.596 257.542 253.888 256.788C255.181 256.034 256.365 254.85 257.119 253.45C257.873 252.05 258.303 250.543 258.303 248.82C258.303 247.097 257.873 245.589 257.119 244.189C256.365 242.789 255.288 241.713 253.888 240.851C252.489 239.99 250.981 239.667 249.366 239.667C247.751 239.667 246.135 240.097 244.843 240.851C243.443 241.713 242.366 242.789 241.613 244.189Z" fill="#2CD8FE"/>
<path d="M265.103 252.374V237.836H267.256V252.374C267.256 254.097 267.795 255.389 268.871 256.466C269.948 257.542 271.348 257.973 272.856 257.973C274.471 257.973 275.763 257.435 276.948 256.466C278.024 255.389 278.563 254.097 278.563 252.374V237.836H280.717V252.374C280.717 253.881 280.394 255.281 279.64 256.466C278.886 257.65 278.025 258.619 276.84 259.158C275.655 259.804 274.363 260.127 272.963 260.127C271.564 260.127 270.271 259.804 269.087 259.158C267.902 258.512 266.933 257.65 266.287 256.466C265.533 255.173 265.103 253.881 265.103 252.374Z" fill="#2CD8FE"/>
<path d="M286.851 259.804V237.836H295.035C296.112 237.836 297.081 238.052 297.835 238.375C298.696 238.806 299.235 239.236 299.773 239.882C300.204 240.529 300.527 241.282 300.85 242.036C301.065 242.79 301.173 243.651 301.173 244.513C301.173 245.159 301.065 245.805 300.958 246.451C300.85 247.097 300.635 247.636 300.311 248.282C299.988 248.82 299.665 249.359 299.235 249.789C298.804 250.22 298.265 250.543 297.619 250.758C296.973 250.974 296.219 251.189 295.358 251.189L301.496 259.804H298.912L292.881 251.189H289.112V259.804H286.851ZM289.005 249.035H294.927C295.681 249.035 296.327 248.928 296.866 248.712C297.404 248.497 297.835 248.066 298.158 247.636C298.481 247.205 298.696 246.666 298.804 246.236C298.912 245.697 299.019 245.159 299.019 244.513C299.019 243.867 298.912 243.328 298.804 242.79C298.696 242.251 298.481 241.821 298.158 241.282C297.835 240.852 297.404 240.529 296.866 240.205C296.327 239.99 295.681 239.775 295.035 239.775H289.005V249.035Z" fill="#2CD8FE"/>
<path d="M312.367 237.726H314.628L320.766 256.463L325.289 240.634H326.796L331.319 256.463L337.457 237.726H339.718L332.288 259.693H330.35L326.042 244.941L321.735 259.693H319.689L312.367 237.726Z" fill="#2CD8FE"/>
<path d="M343.818 259.804V237.836H356.31V239.99H345.864V248.066H355.017V250.22H345.864V257.865H356.633V260.019H343.818V259.804Z" fill="#2CD8FE"/>
<path d="M359.002 259.804L367.509 237.836H369.771L378.278 259.804H376.016L373.755 254.097H363.525L361.264 259.804H359.002ZM364.279 252.051H373.001L368.694 240.744L364.279 252.051Z" fill="#2CD8FE"/>
<path d="M381.949 259.804V237.836H384.103V257.758H393.471V259.911H381.949V259.804Z" fill="#2CD8FE"/>
<path d="M395.278 239.88V237.726H411.538V239.88H404.431V259.801H402.277V239.88H395.278Z" fill="#2CD8FE"/>
<path d="M415.656 259.804V237.836H417.81V247.959H429.87V237.836H432.024V259.804H429.87V249.897H417.702V259.804H415.656Z" fill="#2CD8FE"/>
<path d="M109.696 216.404V172.792H119.28L132.31 196.267V172.792H142.863V216.404H133.602L120.249 192.713V216.404H109.696Z" fill="white"/>
<path d="M150.281 203.481H160.942C161.05 204.773 161.48 205.742 162.342 206.604C163.203 207.357 164.495 207.788 166.326 207.788C167.834 207.788 169.018 207.465 170.095 206.819C171.172 206.173 171.71 205.204 171.71 203.911C171.71 203.696 171.71 203.481 171.71 203.373C171.71 203.265 171.602 203.05 171.495 202.727C171.387 202.404 171.172 202.189 170.849 201.973C170.526 201.758 170.095 201.435 169.557 201.219C169.018 200.896 168.264 200.573 167.403 200.358L162.234 198.635C160.403 198.097 158.788 197.451 157.388 196.589C155.988 195.728 154.912 194.974 154.05 194.112C153.296 193.251 152.543 192.282 152.112 191.205C151.573 190.128 151.25 189.267 151.143 188.405C151.035 187.544 150.927 186.682 150.927 185.821C150.927 181.836 152.327 178.606 155.235 176.129C158.142 173.653 161.803 172.36 166.218 172.36C170.633 172.36 174.187 173.545 176.987 176.022C179.786 178.498 181.186 181.729 181.186 186.036H170.633C170.633 184.744 170.31 183.775 169.557 183.021C168.803 182.267 167.726 181.944 166.111 181.944C164.711 181.944 163.526 182.267 162.772 182.913C161.911 183.559 161.48 184.421 161.48 185.498C161.48 187.113 162.772 188.297 165.465 189.051L170.526 190.559C178.602 193.035 182.586 197.45 182.586 203.911C182.586 205.742 182.263 207.465 181.617 208.973C180.971 210.48 180.109 211.772 179.033 212.742C177.956 213.711 176.771 214.572 175.371 215.218C173.972 215.864 172.572 216.403 171.064 216.726C169.557 217.049 168.049 217.156 166.541 217.156C161.696 217.156 157.819 215.972 154.912 213.495C151.681 210.803 150.281 207.573 150.281 203.481Z" fill="white"/>
<path d="M189.068 200.572V172.897H199.621V200.787C199.621 202.726 200.267 204.233 201.667 205.525C202.959 206.71 204.575 207.356 206.298 207.356C208.021 207.356 209.528 206.71 210.928 205.525C212.22 204.341 212.974 202.726 212.974 200.787V172.897H223.527V200.572C223.527 203.802 222.773 206.71 221.158 209.294C219.543 211.879 217.497 213.709 214.912 215.109C212.328 216.509 209.528 217.048 206.405 217.048C203.39 217.048 200.483 216.401 197.898 215.109C195.314 213.817 193.268 211.879 191.653 209.294C190.038 206.71 189.068 203.802 189.068 200.572Z" fill="white"/>
<path d="M232.65 216.404V172.792H250.741C253.218 172.792 255.372 173.223 257.417 173.977C259.356 174.838 260.971 175.915 262.156 177.315C263.34 178.715 264.202 180.222 264.848 181.945C265.494 183.668 265.709 185.391 265.709 187.329C265.709 190.667 264.848 193.575 263.017 196.159C261.186 198.744 258.602 200.467 255.264 201.328L265.924 216.404H253.649L244.28 201.866H243.311V216.404H232.65ZM243.311 192.821H250.31C251.926 192.821 253.11 192.283 253.864 191.206C254.618 190.129 255.048 188.837 255.048 187.437C255.048 185.929 254.618 184.745 253.864 183.668C253.11 182.591 251.926 182.16 250.31 182.16H243.311V192.821Z" fill="white"/>
<path d="M267.67 216.404L283.715 172.792H295.237L311.282 216.404H300.083L296.422 206.389H282.746L279.085 216.404H267.67ZM285.546 197.344H293.73L289.53 183.022L285.546 197.344Z" fill="white"/>
<path d="M315.476 216.404V172.792H325.06L338.09 196.267V172.792H348.642V216.404H339.382L326.029 192.713V216.404H315.476Z" fill="white"/>
<path d="M355.862 194.651C355.862 191.636 356.4 188.728 357.585 185.928C358.769 183.129 360.385 180.76 362.323 178.821C364.261 176.883 366.63 175.268 369.43 174.083C372.23 172.899 375.029 172.36 378.045 172.36C381.921 172.36 385.367 173.222 388.705 175.052C391.936 176.883 394.628 179.252 396.674 182.375L387.844 188.513C386.767 186.898 385.367 185.498 383.644 184.529C381.921 183.559 380.091 183.021 378.045 183.021C374.814 183.021 372.122 184.205 369.861 186.467C367.599 188.728 366.522 191.528 366.522 194.758C366.522 197.989 367.599 200.789 369.861 203.05C372.122 205.311 374.814 206.496 378.045 206.496C380.091 206.496 381.921 205.957 383.644 204.988C385.367 204.019 386.767 202.727 387.844 201.004L396.566 207.034C394.52 210.157 391.936 212.526 388.597 214.357C385.367 216.187 381.813 217.049 377.937 217.049C374.922 217.049 372.014 216.51 369.322 215.218C366.522 214.034 364.261 212.418 362.215 210.48C360.277 208.434 358.662 206.065 357.477 203.373C356.508 200.573 355.862 197.666 355.862 194.651Z" fill="white"/>
<path d="M403.04 216.404V172.792H431.253V182.053H413.593V190.344H429.207V199.39H413.593V207.143H431.899V216.404H403.04Z" fill="white"/>
<path d="M175.596 93.8606C176.35 110.551 173.227 126.704 169.458 142.749C168.274 147.917 167.52 148.025 163.32 144.687C134.569 121.427 101.833 109.259 64.5749 110.013C59.6215 110.121 58.7601 109.044 60.806 104.844C71.359 82.9846 83.8502 62.6325 101.941 46.157C109.91 38.8345 118.955 33.0196 129.4 29.8968C142.537 26.0202 155.136 30.3276 162.997 41.5266C171.289 53.3717 174.196 66.9398 175.489 81.0463C175.919 85.2459 175.596 89.5532 175.596 93.8606Z" fill="white"/>
<path d="M106.901 22.6772C107.655 22.6772 108.301 22.6772 109.055 22.6772C110.455 22.7849 112.285 22.3542 112.824 23.9694C113.47 26.0154 111.424 26.5538 110.132 27.4153C83.3186 44.86 66.5201 70.3808 52.952 98.4861C52.4136 99.563 51.8752 100.747 51.4444 101.932C49.9369 105.916 47.6755 106.778 44.2297 103.763C33.0306 94.0711 20.1087 89.2254 5.2484 89.4408C0.72571 89.5484 -0.135755 87.9332 2.12559 84.0566C14.4015 62.7354 31.7384 46.9059 53.4904 35.9223C70.289 27.4153 88.272 23.6464 106.901 22.6772Z" fill="white"/>
<path d="M229.674 146.737C229.997 151.044 229.243 157.182 228.274 163.212C227.521 167.95 226.336 168.489 222.459 165.581C212.445 158.151 201.246 153.844 188.862 152.552C187.462 152.444 185.955 152.228 184.555 152.336C177.34 152.767 177.448 152.659 179.063 145.875C186.709 114.539 190.262 83.096 179.817 51.5448C179.494 50.5757 178.632 49.1758 179.709 48.6374C181.648 47.4529 183.047 49.3912 184.34 50.468C198.769 61.667 209.645 75.7735 217.506 92.1413C225.475 108.725 229.782 126.385 229.674 146.737Z" fill="white"/>
<path d="M120.395 134.545L108.725 130.093L75.7961 216.415L87.4666 220.867L120.395 134.545Z" fill="white"/>
<path d="M158.37 26.7702L146.74 22.3552L153.74 4.04912C154.924 0.818628 158.585 -0.796618 161.816 0.387896C165.046 1.57241 166.662 5.23363 165.477 8.46413L158.37 26.7702Z" fill="white"/>
</svg>
