<svg width="267" height="267" viewBox="0 0 267 267" fill="none" xmlns="http://www.w3.org/2000/svg">
<path d="M206.097 83.1808C206.097 85.0601 205.379 86.9347 203.937 88.3648L140.23 152.162C138.793 153.592 136.905 154.312 135.021 154.312C133.137 154.312 131.249 153.583 129.821 152.162L95.5516 118.107C94.1237 116.686 93.3867 114.807 93.3867 112.515C93.3867 110.636 94.1053 108.761 95.547 107.331L100.756 102.147C102.23 101.102 103.704 100.415 105.961 100.415C108.218 100.415 109.738 101.102 111.212 102.523L135.035 126.229L188.327 73.198C189.769 71.7634 191.653 71.0483 193.537 71.0483C195.42 71.0483 197.309 71.7634 198.746 73.198L203.955 78.3819C205.406 79.8349 206.097 81.7141 206.097 83.1808Z" fill="white"/>
<path d="M206.097 83.1808C206.097 85.0601 205.379 86.9347 203.937 88.3648L140.23 152.162C138.793 153.592 136.905 154.312 135.021 154.312C133.137 154.312 131.249 153.583 129.821 152.162L95.5516 118.107C94.1237 116.686 93.3867 114.807 93.3867 112.515C93.3867 110.636 94.1053 108.761 95.547 107.331L100.756 102.147C102.23 101.102 103.704 100.415 105.961 100.415C108.218 100.415 109.738 101.102 111.212 102.523L135.035 126.229L188.327 73.198C189.769 71.7634 191.653 71.0483 193.537 71.0483C195.42 71.0483 197.309 71.7634 198.746 73.198L203.955 78.3819C205.406 79.8349 206.097 81.7141 206.097 83.1808Z" fill="#03BE4E"/>
<g opacity="0.92" filter="url(#filter0_b_1_201)">
<mask id="path-2-outside-1_1_201" maskUnits="userSpaceOnUse" x="0" y="0" width="267" height="267" fill="black">
<rect fill="white" width="267" height="267"/>
<path d="M264.328 133.164C264.328 159.106 256.635 184.465 242.223 206.035C227.81 227.605 207.325 244.416 183.358 254.344C159.391 264.271 133.018 266.869 107.575 261.808C82.1318 256.747 58.7607 244.255 40.417 225.911C22.0734 207.567 9.58127 184.196 4.52028 158.753C-0.540712 133.309 2.05677 106.937 11.9843 82.9697C21.9118 59.0026 38.7234 38.5176 60.2932 24.1051C81.863 9.69263 107.222 2 133.164 2V133.164H264.328Z"/>
</mask>
<path d="M264.328 133.164C264.328 159.106 256.635 184.465 242.223 206.035C227.81 227.605 207.325 244.416 183.358 254.344C159.391 264.271 133.018 266.869 107.575 261.808C82.1318 256.747 58.7607 244.255 40.417 225.911C22.0734 207.567 9.58127 184.196 4.52028 158.753C-0.540712 133.309 2.05677 106.937 11.9843 82.9697C21.9118 59.0026 38.7234 38.5176 60.2932 24.1051C81.863 9.69263 107.222 2 133.164 2V133.164H264.328Z" fill="url(#paint0_linear_1_201)"/>
<path d="M264.328 133.164C264.328 159.106 256.635 184.465 242.223 206.035C227.81 227.605 207.325 244.416 183.358 254.344C159.391 264.271 133.018 266.869 107.575 261.808C82.1318 256.747 58.7607 244.255 40.417 225.911C22.0734 207.567 9.58127 184.196 4.52028 158.753C-0.540712 133.309 2.05677 106.937 11.9843 82.9697C21.9118 59.0026 38.7234 38.5176 60.2932 24.1051C81.863 9.69263 107.222 2 133.164 2V133.164H264.328Z" stroke="url(#paint1_radial_1_201)" stroke-opacity="0.6" stroke-width="3.39825" mask="url(#path-2-outside-1_1_201)"/>
</g>
<path d="M167.112 6.46944C166.251 6.23882 165.388 6.01696 164.523 5.80392L159.156 27.6013C159.873 27.7779 160.588 27.9618 161.302 28.153L167.112 6.46944Z" fill="#535353"/>
<path d="M198.746 19.5728C197.974 19.1272 197.198 18.6896 196.417 18.2598L185.592 37.9254C186.239 38.2816 186.882 38.6444 187.522 39.0137L198.746 19.5728Z" fill="#535353"/>
<path d="M225.911 40.4172C225.281 39.7871 224.644 39.1634 224.001 38.5463L208.455 54.7399C208.988 55.2514 209.515 55.7684 210.037 56.2906L225.911 40.4172Z" fill="#535353"/>
<path d="M246.755 67.5821C246.31 66.8104 245.856 66.0432 245.395 65.2808L226.187 76.8989C226.569 77.5308 226.945 78.1667 227.314 78.8064L246.755 67.5821Z" fill="#535353"/>
<path d="M259.859 99.2164C259.628 98.3556 259.389 97.4973 259.14 96.6414L237.58 102.892C237.786 103.602 237.984 104.313 238.175 105.026L259.859 99.2164Z" fill="#535353"/>
<defs>
<filter id="filter0_b_1_201" x="-33.6818" y="-33.6818" width="333.692" height="333.692" filterUnits="userSpaceOnUse" color-interpolation-filters="sRGB">
<feFlood flood-opacity="0" result="BackgroundImageFix"/>
<feGaussianBlur in="BackgroundImageFix" stdDeviation="16.9913"/>
<feComposite in2="SourceAlpha" operator="in" result="effect1_backgroundBlur_1_201"/>
<feBlend mode="normal" in="SourceGraphic" in2="effect1_backgroundBlur_1_201" result="shape"/>
</filter>
<linearGradient id="paint0_linear_1_201" x1="59.8314" y1="38.3682" x2="224.903" y2="245.374" gradientUnits="userSpaceOnUse">
<stop stop-color="white" stop-opacity="0.45"/>
<stop offset="1" stop-color="white" stop-opacity="0"/>
<stop offset="1" stop-color="white" stop-opacity="0"/>
</linearGradient>
<radialGradient id="paint1_radial_1_201" cx="0" cy="0" r="1" gradientUnits="userSpaceOnUse" gradientTransform="translate(133.164 133.164) rotate(-43.0379) scale(258.578)">
<stop stop-color="white"/>
<stop offset="1" stop-color="white" stop-opacity="0"/>
</radialGradient>
</defs>
</svg>
