<svg width="18" height="19" viewBox="0 0 18 19" fill="none" xmlns="http://www.w3.org/2000/svg">
<path d="M8.47558 13.1809C8.47558 13.4571 8.69944 13.6809 8.97558 13.6809C9.25172 13.6809 9.47558 13.4571 9.47558 13.1809V10.9053C9.47558 10.6291 9.25172 10.4053 8.97558 10.4053C8.69944 10.4053 8.47558 10.6291 8.47558 10.9053V13.1809Z" stroke="#ADC9CD" stroke-linecap="round" stroke-linejoin="round"/>
<mask id="path-2-outside-1_1_295" maskUnits="userSpaceOnUse" x="0.0728912" y="7.81641" width="18" height="5" fill="black">
<rect fill="white" x="0.0728912" y="7.81641" width="18" height="5"/>
<path fill-rule="evenodd" clip-rule="evenodd" d="M16.8821 8.81641L16.857 8.83459C14.7597 10.1266 11.9905 10.9068 8.9736 10.9068C5.95671 10.9068 3.19527 10.1266 1.09887 8.83459L1.07289 8.81641"/>
</mask>
<path d="M17.4686 9.62634C17.9159 9.30242 18.016 8.6772 17.692 8.22989C17.3681 7.78257 16.7429 7.68255 16.2956 8.00647L17.4686 9.62634ZM16.857 8.83459L17.3815 9.68601C17.4027 9.67296 17.4233 9.65912 17.4435 9.64453L16.857 8.83459ZM1.09887 8.83459L0.525407 9.65382C0.541363 9.66499 0.557641 9.67569 0.574222 9.68591L1.09887 8.83459ZM1.64635 7.99717C1.1939 7.68046 0.570374 7.79049 0.253659 8.24294C-0.0630552 8.69539 0.0469795 9.31892 0.499429 9.63564L1.64635 7.99717ZM16.2956 8.00647L16.2705 8.02466L17.4435 9.64453L17.4686 9.62634L16.2956 8.00647ZM16.3325 7.98317C14.4095 9.16777 11.8258 9.90675 8.9736 9.90675V11.9068C12.1552 11.9068 15.1099 11.0853 17.3815 9.68601L16.3325 7.98317ZM8.9736 9.90675C6.12191 9.90675 3.54592 9.168 1.62352 7.98327L0.574222 9.68591C2.84462 11.0851 5.79152 11.9068 8.9736 11.9068V9.90675ZM1.67233 8.01536L1.64635 7.99717L0.499429 9.63564L0.525407 9.65382L1.67233 8.01536Z" fill="#ADC9CD" mask="url(#path-2-outside-1_1_295)"/>
<path d="M8.97604 2.83643C5.96655 2.83643 3.80584 3.2759 2.41231 4.51694C1.00118 5.77364 0.5 7.73663 0.5 10.4396C0.5 13.1426 1.00118 15.1056 2.41231 16.3623C3.80584 17.6033 5.96655 18.0428 8.97604 18.0428C11.9859 18.0428 14.1467 17.6033 15.5401 16.3623C16.9511 15.1056 17.4521 13.1425 17.4521 10.4396C17.4521 7.73668 16.9511 5.77367 15.5401 4.51695C14.1467 3.27589 11.9859 2.83643 8.97604 2.83643Z" stroke="#ADC9CD" stroke-linecap="round" stroke-linejoin="round"/>
<mask id="path-5-outside-2_1_295" maskUnits="userSpaceOnUse" x="5.15106" y="0" width="8" height="5" fill="black">
<rect fill="white" x="5.15106" width="8" height="5"/>
<path fill-rule="evenodd" clip-rule="evenodd" d="M11.8012 3.52764V2.9821C11.8012 1.88757 11.002 1 10.0174 1H7.93487C6.95031 1 6.15106 1.88757 6.15106 2.9821V3.52764"/>
</mask>
<path d="M10.8012 3.52764C10.8012 4.07992 11.2489 4.52764 11.8012 4.52764C12.3535 4.52764 12.8012 4.07992 12.8012 3.52764H10.8012ZM5.15106 3.52764C5.15106 4.07992 5.59878 4.52764 6.15106 4.52764C6.70335 4.52764 7.15106 4.07992 7.15106 3.52764H5.15106ZM12.8012 3.52764V2.9821H10.8012V3.52764H12.8012ZM12.8012 2.9821C12.8012 1.43687 11.6506 0 10.0174 0V2C10.3533 2 10.8012 2.33828 10.8012 2.9821H12.8012ZM10.0174 0H7.93487V2H10.0174V0ZM7.93487 0C6.30165 0 5.15106 1.43687 5.15106 2.9821H7.15106C7.15106 2.33828 7.59898 2 7.93487 2V0ZM5.15106 2.9821V3.52764H7.15106V2.9821H5.15106Z" fill="#ADC9CD" mask="url(#path-5-outside-2_1_295)"/>
</svg>
