<svg width="31" height="31" viewBox="0 0 31 31" fill="none" xmlns="http://www.w3.org/2000/svg">
<path fill-rule="evenodd" clip-rule="evenodd" d="M15.4601 0.780273C7.44319 0.780273 0.883789 7.37099 0.883789 15.4261C0.883789 23.4817 7.44319 30.072 15.4601 30.072C16.8369 30.072 17.8894 29.0144 17.8894 27.631C17.8894 26.9803 17.6467 26.4105 17.2418 26.0037C16.8369 25.5968 16.5941 25.0271 16.5941 24.3764C16.5941 22.993 17.6467 21.9354 19.0235 21.9354H21.9385C26.3923 21.9354 30.0364 18.2739 30.0364 13.7988C30.0363 6.63877 23.4773 0.780273 15.4601 0.780273ZM6.55236 15.4261C5.17551 15.4261 4.12299 14.3686 4.12299 12.9852C4.12299 11.6017 5.17551 10.5442 6.55236 10.5442C7.92914 10.5442 8.98174 11.6017 8.98174 12.9852C8.98174 14.3686 7.92914 15.4261 6.55236 15.4261ZM11.4111 8.91689C10.0343 8.91689 8.98174 7.85926 8.98174 6.47591C8.98174 5.09249 10.0343 4.03493 11.4111 4.03493C12.7879 4.03493 13.8405 5.09249 13.8405 6.47591C13.8405 7.85926 12.7879 8.91689 11.4111 8.91689ZM19.509 8.91689C18.1322 8.91689 17.0796 7.85926 17.0796 6.47591C17.0796 5.09249 18.1322 4.03493 19.509 4.03493C20.8859 4.03493 21.9384 5.09249 21.9384 6.47591C21.9384 7.85926 20.8859 8.91689 19.509 8.91689ZM24.3678 15.4261C22.991 15.4261 21.9384 14.3686 21.9384 12.9852C21.9384 11.6017 22.991 10.5442 24.3678 10.5442C25.7446 10.5442 26.7971 11.6017 26.7971 12.9852C26.7971 14.3686 25.7446 15.4261 24.3678 15.4261Z" fill="black" fill-opacity="0.54"/>
</svg>
